<svg width="310" height="27" viewBox="0 0 310 27" fill="none" xmlns="http://www.w3.org/2000/svg">
<g clip-path="url(#clip0_3001_4231)">
<path d="M109.99 21.0713C109.469 21.9101 108.757 22.5784 107.852 23.076C106.948 23.5736 106.017 23.8153 105.03 23.8153H96.5364V10.2087H103.784C104.633 10.2087 105.359 10.3651 105.976 10.6921C106.578 11.0191 106.989 11.4314 107.181 11.9575L107.291 12.2561H107.757V7.99069H107.291L107.181 8.26083C107.03 8.71581 106.633 9.08547 106.017 9.35562C105.4 9.62576 104.66 9.76794 103.784 9.76794H96.5364V0.639977H104.77C105.756 0.639977 106.661 0.881683 107.496 1.37931C108.332 1.87694 108.935 2.53097 109.318 3.38405L109.524 3.8959H109.99C109.976 3.31296 109.935 2.70159 109.907 2.04756C109.866 1.39353 109.853 0.782157 109.853 0.199219H93.0703V0.767939H93.3306C93.769 0.767939 94.1389 0.966991 94.3992 1.35088C94.6732 1.74898 94.8102 2.27505 94.8102 2.92908V21.5262C94.8102 22.294 94.6595 22.8343 94.3581 23.1755C94.0567 23.5168 93.632 23.6874 93.0703 23.6874V24.2561H110.058C110.072 24.1708 110.154 23.8011 110.291 23.1187C110.428 22.4362 110.592 21.5973 110.784 20.5878H110.346L110.003 21.0713H109.99Z" fill="#172338"/>
<path d="M131.484 3.46893C130.456 2.4168 129.21 1.60637 127.744 1.03765C126.278 0.468931 124.661 0.18457 122.853 0.18457H113.578V0.724855H113.838C114.277 0.724855 114.633 0.923907 114.907 1.30779C115.181 1.7059 115.318 2.23196 115.318 2.91443V21.5116C115.318 22.2794 115.167 22.8196 114.866 23.1609C114.565 23.5021 114.14 23.6727 113.578 23.6727V24.2414H124.511C126.031 24.2414 127.429 23.9571 128.703 23.3741C129.963 22.7912 131.045 21.9808 131.936 20.9286C132.826 19.8765 133.511 18.6111 134.005 17.1182C134.498 15.6395 134.744 13.9903 134.744 12.1846C134.744 10.3789 134.457 8.74381 133.895 7.26514C133.32 5.78647 132.525 4.52106 131.484 3.46893ZM132.402 16.9334C131.991 18.3552 131.415 19.5779 130.676 20.5874C129.936 21.5969 129.032 22.3789 127.99 22.9334C126.949 23.4879 125.785 23.758 124.511 23.758H117.058V0.625329H122.853C124.374 0.625329 125.771 0.895471 127.018 1.44997C128.264 2.00448 129.333 2.78647 130.223 3.79594C131.114 4.80542 131.799 6.02817 132.278 7.44997C132.758 8.87177 133.005 10.45 133.005 12.1704C133.005 13.8907 132.799 15.4974 132.402 16.9192V16.9334Z" fill="#172338"/>
<path d="M85.9872 0.725099H86.2475C86.6859 0.725099 87.0421 0.924151 87.3024 1.30804C87.5627 1.69192 87.6997 2.23221 87.6997 2.91467V21.5687L71.6709 0.184814H68.3418V0.725099H68.6021C69.0405 0.725099 69.4104 0.924151 69.6707 1.30804C69.9447 1.70614 70.0817 2.23221 70.0817 2.91467V21.5118C70.0817 22.2796 69.931 22.8199 69.6296 23.1611C69.3282 23.5024 68.9035 23.673 68.3418 23.673V24.2417H72.3421V23.673H72.0545C71.6161 23.673 71.2599 23.4739 70.9996 23.09C70.7393 22.7061 70.6023 22.1659 70.6023 21.5118V1.80567L86.8914 23.5024L87.6723 24.5829H88.2477V2.91467C88.2477 2.1469 88.3984 1.5924 88.6861 1.25117C88.9738 0.895715 89.3985 0.725099 89.9602 0.725099V0.184814H85.9872V0.725099Z" fill="#172338"/>
<path d="M61.204 0.725099H61.4643C61.9027 0.725099 62.2589 0.924151 62.5192 1.30804C62.7795 1.69192 62.9165 2.23221 62.9165 2.91467V21.5687L46.8877 0.184814H43.5586V0.725099H43.8189C44.2573 0.725099 44.6272 0.924151 44.8875 1.30804C45.1615 1.70614 45.2985 2.23221 45.2985 2.91467V21.5118C45.2985 22.2796 45.1478 22.8199 44.8464 23.1611C44.545 23.5024 44.1203 23.673 43.5586 23.673V24.2417H47.5589V23.673H47.2712C46.8329 23.673 46.4767 23.4739 46.2164 23.09C45.9561 22.7061 45.8191 22.1659 45.8191 21.5118V1.80567L62.1082 23.5024L62.8891 24.5829H63.4645V2.91467C63.4645 2.1469 63.6152 1.5924 63.9029 1.25117C64.1906 0.895715 64.6152 0.725099 65.1769 0.725099V0.184814H61.204V0.725099Z" fill="#172338"/>
<path d="M179.215 12.0427C178.475 11.4171 177.639 10.891 176.708 10.436C175.776 9.98104 174.804 9.58294 173.817 9.21327C172.831 8.85782 171.872 8.51659 170.927 8.20379C169.995 7.891 169.159 7.56398 168.419 7.19431C167.68 6.83886 167.091 6.44076 166.652 6C166.214 5.57346 165.981 5.04739 165.981 4.45024C165.981 3.66825 166.145 3.01422 166.488 2.48815C166.83 1.96209 167.269 1.54976 167.83 1.25118C168.392 0.952607 169.022 0.739336 169.748 0.625592C170.461 0.511848 171.187 0.440758 171.927 0.440758C172.913 0.440758 173.762 0.526066 174.475 0.696682C175.187 0.867298 175.79 1.09479 176.269 1.37915C176.749 1.66351 177.146 1.9763 177.448 2.33175C177.749 2.6872 177.982 3.04265 178.16 3.42654C178.311 3.72512 178.461 4.05213 178.585 4.40758C178.708 4.76303 178.845 5.07583 179.009 5.36019H179.585L179.475 1.80569L179.325 2.07583C179.325 2.07583 179.379 1.93365 179.475 1.77725C179.051 1.53554 178.557 1.30806 177.982 1.08057C177.407 0.853081 176.804 0.668246 176.146 0.511848C175.489 0.35545 174.804 0.227488 174.105 0.14218C173.393 0.056872 172.694 0 172.009 0C171.118 0 170.242 0.0853081 169.378 0.270142C168.515 0.454976 167.748 0.739336 167.063 1.13744C166.378 1.53554 165.83 2.07583 165.406 2.72986C164.995 3.3981 164.775 4.20853 164.775 5.16114C164.775 5.88626 164.995 6.51185 165.447 7.05213C165.885 7.59242 166.488 8.07583 167.228 8.50237C167.967 8.92891 168.817 9.3128 169.748 9.68246C170.68 10.0379 171.639 10.4076 172.612 10.763C173.584 11.1185 174.543 11.5166 175.475 11.9431C176.406 12.3697 177.256 12.8531 177.996 13.4076C178.735 13.9621 179.338 14.6019 179.777 15.3128C180.215 16.0379 180.448 16.891 180.448 17.872C180.448 18.654 180.27 19.4076 179.9 20.1327C179.53 20.8578 179.023 21.4976 178.393 22.0663C177.749 22.6351 177.009 23.09 176.174 23.4313C175.338 23.7725 174.447 23.9431 173.516 23.9431C172.817 23.9431 172.146 23.9147 171.488 23.872C170.831 23.8152 170.159 23.7441 169.488 23.6446C168.502 23.4171 167.597 23.0047 166.775 22.3649C165.954 21.7393 165.323 20.9431 164.871 20.0047L164.433 19.109H163.857L163.967 22.6351C164.447 22.9194 165.036 23.1611 165.707 23.3886C166.378 23.6161 167.132 23.8009 167.967 23.9431C168.803 24.0995 169.68 24.2133 170.625 24.2844C171.557 24.3697 172.529 24.3981 173.516 24.3981C174.639 24.3981 175.694 24.199 176.68 23.7867C177.667 23.3744 178.53 22.8341 179.256 22.1517C179.996 21.4692 180.571 20.7014 180.996 19.8341C181.421 18.9668 181.64 18.0853 181.64 17.1896C181.64 16.0521 181.421 15.0569 180.969 14.2322C180.53 13.3934 179.941 12.6682 179.201 12.0569L179.215 12.0427Z" fill="#172338"/>
<path d="M17.7478 22.5211C17.0765 21.9523 16.2546 21.213 15.3093 20.2888C14.364 19.3789 13.2406 18.2557 11.9528 16.9334L5.63717 10.4926L14.0763 2.91443H14.1037C15.734 1.46419 17.1039 0.753291 18.2547 0.753291V0.18457H14.775V0.753291C14.9257 0.753291 15.0353 0.767509 15.0764 0.795945C15.1175 0.824381 15.1449 0.867035 15.1449 0.895471C15.1449 1.15139 14.775 1.64903 14.0489 2.37414L3.97949 11.3457L10.6239 18.1135C11.761 19.2509 12.7885 20.232 13.6927 21.0424C14.5969 21.8528 15.4189 22.5211 16.1587 23.0329C16.8984 23.5448 17.556 23.9144 18.1588 24.1419C18.7616 24.3694 19.3233 24.4831 19.8439 24.4831H20.57V24.1277C20.2549 24.1277 19.885 23.9997 19.4329 23.758C18.9945 23.5021 18.4328 23.0898 17.7478 22.5211Z" fill="#172338"/>
<path d="M4.43185 1.26538C4.73325 0.924151 5.15795 0.753535 5.71964 0.753535V0.184814H0.5V0.753535H0.760297C1.19869 0.753535 1.55489 0.952587 1.81518 1.33647C2.07548 1.73458 2.21248 2.26064 2.21248 2.91467V21.5118C2.21248 22.2796 2.06178 22.8341 1.77409 23.1753C1.48639 23.5308 1.06169 23.7014 0.5 23.7014V24.2417H5.71964V23.7014H5.43194C4.99355 23.7014 4.63735 23.5023 4.37706 23.1185C4.11676 22.7204 3.97976 22.1943 3.97976 21.5118V2.91467C3.97976 2.1469 4.13046 1.60662 4.43185 1.26538Z" fill="#172338"/>
<path d="M40.3529 21.0569C39.8323 21.8957 39.1199 22.564 38.2157 23.0616C37.3115 23.5592 36.3799 23.8009 35.3936 23.8009H26.8997V10.1943H34.1469C34.9963 10.1943 35.7224 10.3507 36.3388 10.6777C36.9416 11.0047 37.3526 11.417 37.5444 11.9431L37.654 12.2417H38.1198V7.97628H37.654L37.5444 8.24643C37.3937 8.7014 36.9964 9.07107 36.3799 9.34121C35.7635 9.61135 35.0237 9.75353 34.1469 9.75353H26.8997V0.625573H35.1333C36.1197 0.625573 37.0238 0.867279 37.8595 1.36491C38.6952 1.86254 39.298 2.51657 39.6816 3.36965L39.8871 3.8815H40.3529C40.3392 3.29856 40.2981 2.68718 40.2707 2.03316C40.2296 1.37913 40.2159 0.767753 40.2159 0.184814H23.4336V0.753535H23.6939C24.1323 0.753535 24.5022 0.952587 24.7625 1.33647C25.0365 1.73458 25.1735 2.26064 25.1735 2.91467V21.5118C25.1735 22.2796 25.0228 22.8199 24.7214 23.1611C24.42 23.5024 23.9953 23.673 23.4336 23.673V24.2417H40.4214C40.4351 24.1564 40.5173 23.7867 40.6543 23.1042C40.7913 22.4218 40.9557 21.5829 41.1475 20.5734H40.7091L40.3666 21.0569H40.3529Z" fill="#172338"/>
<path d="M151.733 0.454957C151.733 0.654009 151.774 0.753535 151.842 0.753535H152.075C152.651 0.753535 152.938 1.0379 152.938 1.5924C152.938 2.03316 152.733 2.61609 152.336 3.34121L145.993 14.5023L139.471 2.77249C139.156 2.24643 139.006 1.80567 139.006 1.42178C139.006 0.981023 139.238 0.753535 139.704 0.753535H139.992V0.184814H134.827V0.753535C135.266 0.753535 135.69 0.938369 136.101 1.30804C136.512 1.67771 136.937 2.21799 137.375 2.91467L144.417 15.8815V21.5118C144.417 22.1516 144.28 22.6777 144.006 23.0758C143.732 23.4739 143.376 23.673 142.937 23.673H142.677V24.2417H147.897V23.673H147.637C147.198 23.673 146.828 23.4739 146.568 23.0758C146.294 22.6777 146.157 22.1516 146.157 21.5118V15.199C147.239 13.2938 148.143 11.7014 148.883 10.4218C149.623 9.14216 150.212 8.07581 150.678 7.25116C151.144 6.4123 151.5 5.77249 151.76 5.31752C152.02 4.86254 152.226 4.49287 152.377 4.22273C152.527 3.95259 152.651 3.7251 152.76 3.55448C152.856 3.38387 152.979 3.18481 153.144 2.94311C154.034 1.49287 154.966 0.781971 155.952 0.781971V0.184814H151.719V0.454957H151.733Z" fill="#172338"/>
<path d="M159.816 0.18457C159.473 0.18457 159.186 0.298314 158.98 0.511585C158.761 0.739073 158.665 1.00921 158.665 1.35045C158.665 1.69168 158.775 1.97604 158.98 2.20353C159.199 2.43102 159.46 2.54476 159.788 2.54476H159.98C159.98 2.54476 160.117 2.53054 160.172 2.48789C160.186 2.58741 160.199 2.67272 160.213 2.75803C160.213 2.84334 160.227 2.91443 160.227 2.99974C160.227 3.54002 160.104 4.03765 159.871 4.47841C159.624 4.91917 159.323 5.24618 158.953 5.44523L159.103 5.68694C159.72 5.35993 160.213 4.89073 160.597 4.2367C160.98 3.59689 161.158 2.90021 161.158 2.13244C161.158 1.60637 161.063 1.1514 160.857 0.767509C160.652 0.369404 160.309 0.18457 159.83 0.18457H159.816Z" fill="#172338"/>
<path d="M245.317 16.8913C245.988 17.787 246.837 18.5406 247.837 19.1377C248.837 19.7349 250.016 20.1188 251.345 20.2894C251.619 20.332 251.893 20.3605 252.167 20.3747C252.441 20.3889 252.728 20.4031 253.016 20.4031C254.605 20.4031 255.989 20.133 257.194 19.5927C258.386 19.0524 259.4 18.3131 260.208 17.4031C261.017 16.479 261.633 15.3984 262.03 14.1756C262.441 12.9387 262.633 11.6448 262.633 10.2799C262.633 9.04294 262.469 7.84862 262.126 6.71118C261.784 5.57374 261.277 4.56426 260.592 3.66853C259.907 2.77279 259.058 2.03346 258.057 1.4363C257.057 0.839145 255.879 0.455259 254.55 0.284643C254.276 0.241988 254.002 0.213552 253.742 0.199334C253.468 0.185116 253.194 0.170898 252.906 0.170898C251.317 0.170898 249.933 0.441041 248.728 0.981325C247.536 1.52161 246.522 2.26095 245.714 3.1709C244.906 4.09507 244.289 5.16142 243.892 6.38417C243.481 7.60692 243.289 8.90076 243.289 10.2657C243.289 11.5027 243.453 12.697 243.796 13.8344C244.138 14.9718 244.645 15.9813 245.317 16.8913ZM245.536 6.55478C245.878 5.37469 246.372 4.35099 247.043 3.45526C247.714 2.55952 248.55 1.86284 249.55 1.33678C250.55 0.810709 251.714 0.554785 253.03 0.554785C253.221 0.554785 253.413 0.554785 253.591 0.569003C253.769 0.569003 253.948 0.597439 254.126 0.611657C255.249 0.768055 256.222 1.13772 257.071 1.72066C257.907 2.3036 258.605 3.02872 259.167 3.8818C259.729 4.7491 260.154 5.71592 260.441 6.81071C260.729 7.9055 260.88 9.05715 260.88 10.2515C260.88 11.5737 260.715 12.8249 260.373 13.9908C260.03 15.1709 259.537 16.1946 258.866 17.0903C258.194 17.9861 257.373 18.697 256.372 19.2088C255.372 19.7349 254.222 19.9908 252.906 19.9908C252.523 19.9908 252.153 19.9624 251.81 19.9055C250.687 19.7491 249.701 19.3794 248.851 18.8107C248.002 18.242 247.289 17.5169 246.741 16.6638C246.18 15.7965 245.755 14.8154 245.467 13.7207C245.18 12.6117 245.029 11.46 245.029 10.2657C245.029 8.95763 245.193 7.72066 245.536 6.55478Z" fill="#172338"/>
<path d="M283.908 0.767939H284.223C284.662 0.767939 285.059 0.995427 285.401 1.46462C285.744 1.9196 285.922 2.4741 285.963 3.08547L285.936 16.3509C285.936 17.3177 285.744 18.2419 285.36 19.1234C284.977 20.0049 284.415 20.7869 283.675 21.4551C282.935 22.1234 282.045 22.6637 280.99 23.0618C279.935 23.4599 278.743 23.6589 277.414 23.6589C276.086 23.6589 275.003 23.4457 273.989 23.0333C272.989 22.6068 272.14 22.0381 271.441 21.313C270.743 20.5878 270.208 19.7632 269.838 18.8106C269.455 17.8722 269.277 16.8769 269.277 15.839L269.249 2.7869C269.29 2.24661 269.441 1.77742 269.729 1.37931C270.003 0.981209 270.332 0.782157 270.702 0.782157H270.962V0.199219H265.742V0.767939H266.002C266.386 0.767939 266.729 0.995427 267.03 1.43619C267.331 1.87694 267.482 2.38879 267.482 2.97173V15.4551C267.482 16.6637 267.701 17.8011 268.153 18.8675C268.592 19.9338 269.236 20.8864 270.071 21.6968C270.907 22.5073 271.921 23.1471 273.126 23.6163C274.332 24.0855 275.688 24.3272 277.195 24.3272C278.702 24.3272 279.949 24.1139 281.113 23.7016C282.278 23.275 283.251 22.7063 284.045 21.9812C284.84 21.2561 285.443 20.4314 285.867 19.4788C286.292 18.5405 286.511 17.5594 286.511 16.5357V3.27031C286.511 2.94329 286.566 2.64472 286.662 2.33192C286.758 2.03334 286.881 1.7632 287.045 1.53571C287.196 1.30822 287.374 1.12339 287.566 0.981209C287.758 0.839029 287.963 0.767939 288.169 0.767939H288.484V0.199219H283.936V0.767939H283.908Z" fill="#172338"/>
<path d="M308.952 5.10389C308.582 4.08019 308.075 3.21289 307.418 2.48777C306.76 1.76265 305.979 1.20815 305.061 0.810047C304.143 0.411943 303.13 0.212891 302.006 0.212891H291.334V0.781611H291.622C292.06 0.781611 292.43 0.980663 292.69 1.37877C292.964 1.77687 293.101 2.30294 293.101 2.94275V21.5399C293.101 22.1797 292.964 22.7058 292.69 23.1181C292.416 23.5304 292.06 23.7295 291.622 23.7295H291.334V24.2698H296.691V23.7295H296.403C295.965 23.7295 295.595 23.5304 295.334 23.1181C295.06 22.7058 294.923 22.1797 294.923 21.5399V16.6631H300.609C301.924 16.6631 303.13 16.4641 304.212 16.0802C305.308 15.6821 306.239 15.1276 307.02 14.4167C307.801 13.6916 308.418 12.8385 308.842 11.829C309.281 10.8195 309.5 9.71052 309.5 8.48777C309.5 7.26502 309.322 6.1418 308.952 5.1181V5.10389ZM307.075 11.6157C306.733 12.5683 306.267 13.393 305.65 14.0612C305.048 14.7437 304.308 15.2698 303.445 15.6394C302.582 16.0091 301.636 16.1939 300.595 16.1939H294.91V0.639431H301.979C302.814 0.639431 303.568 0.824265 304.253 1.20815C304.938 1.59204 305.527 2.1181 306.02 2.80057C306.513 3.48303 306.897 4.30768 307.171 5.2745C307.445 6.24133 307.582 7.29346 307.582 8.45934C307.582 9.62521 307.418 10.6489 307.075 11.6015V11.6157Z" fill="#172338"/>
<path d="M214.505 11.3886H214.792C215.231 11.3886 215.587 11.5876 215.847 11.9715C216.108 12.3554 216.245 12.8957 216.245 13.5781V22.4786C215.176 22.9336 213.97 23.3033 212.614 23.5592C211.258 23.8151 209.929 23.9573 208.614 23.9573C207.148 23.9573 205.805 23.6729 204.613 23.1184C203.408 22.5639 202.394 21.7535 201.545 20.7298C200.695 19.6919 200.038 18.4549 199.572 17.0189C199.106 15.5687 198.873 13.9762 198.873 12.199C198.873 10.4217 199.106 8.82932 199.572 7.37909C200.038 5.92885 200.695 4.7061 201.545 3.68241C202.394 2.65871 203.422 1.8625 204.613 1.308C205.805 0.753497 207.148 0.469136 208.614 0.469136C209.71 0.469136 210.806 0.554444 211.888 0.739279C212.491 0.853023 213.066 1.06629 213.628 1.35065C214.19 1.63501 214.696 2.00468 215.162 2.43122C215.628 2.85776 216.025 3.34117 216.382 3.88146C216.724 4.40753 217.012 4.97625 217.217 5.58762H217.793L217.642 2.18952C217.08 1.8625 216.45 1.57814 215.738 1.308C215.025 1.03786 214.285 0.810369 213.491 0.611317C212.696 0.426482 211.888 0.270084 211.052 0.170558C210.217 0.0710322 209.395 0.0141602 208.586 0.0141602C206.833 0.0141602 205.23 0.29852 203.805 0.881459C202.38 1.4644 201.147 2.28904 200.12 3.36961C199.092 4.43596 198.298 5.7298 197.736 7.22269C197.174 8.71558 196.9 10.3791 196.9 12.199C196.9 14.0189 197.174 15.7108 197.736 17.2037C198.298 18.6966 199.092 19.9762 200.12 21.0568C201.147 22.1232 202.367 22.962 203.805 23.545C205.23 24.1279 206.833 24.4123 208.586 24.4123C209.422 24.4123 210.271 24.3554 211.135 24.2559C212.011 24.1563 212.833 24.0142 213.642 23.8151C214.45 23.6303 215.203 23.3886 215.916 23.1184C216.628 22.8483 217.258 22.5497 217.806 22.2369V13.5781C217.806 12.8104 217.957 12.2559 218.245 11.9146C218.532 11.5592 218.957 11.3886 219.519 11.3886V10.8198H214.477V11.3886H214.505Z" fill="#172338"/>
<path d="M258.482 24.9954C257.125 25.5641 255.769 25.9338 254.413 26.0902C253.056 26.2466 251.673 26.1897 250.303 25.9054C248.919 25.621 247.549 25.0665 246.207 24.2561C245.22 23.6732 244.22 22.9765 243.22 22.166C242.22 21.3556 241.206 20.5594 240.179 19.7774C239.151 18.9954 238.11 18.2845 237.069 17.6589C236.014 17.0333 234.932 16.5926 233.808 16.3509C234.795 16.1234 235.685 15.7822 236.48 15.313C237.274 14.8438 237.946 14.2608 238.507 13.5784C239.069 12.8959 239.494 12.1281 239.795 11.2608C240.096 10.3935 240.247 9.45514 240.247 8.43145C240.247 7.2087 240.069 6.08547 239.699 5.076C239.329 4.06652 238.822 3.19922 238.165 2.4741C237.507 1.74898 236.713 1.19448 235.781 0.796375C234.849 0.398271 233.822 0.199219 232.712 0.199219H222.067V0.739503H222.355C222.793 0.739503 223.163 0.938555 223.424 1.33666C223.698 1.73476 223.835 2.27505 223.835 2.92908V21.5262C223.835 22.166 223.698 22.6921 223.424 23.0902C223.15 23.4883 222.793 23.6874 222.355 23.6874H222.067V24.2561H227.424V23.6874H227.136C226.698 23.6874 226.328 23.4883 226.068 23.0902C225.794 22.6921 225.657 22.166 225.657 21.5262V16.621H231.315C231.698 16.621 232.068 16.621 232.397 16.6495C232.74 16.6637 233.096 16.749 233.479 16.8912C233.863 17.0333 234.301 17.2608 234.781 17.5736C235.26 17.8864 235.836 18.3272 236.493 18.8817C237.192 19.4788 237.932 20.1186 238.713 20.8011C239.494 21.4836 240.343 22.166 241.261 22.8343C242.179 23.5025 243.179 24.1423 244.261 24.7395C245.343 25.3367 246.522 25.8485 247.796 26.2466C248.892 26.6021 250.015 26.8438 251.152 26.9575C252.289 27.0713 253.481 27.0144 254.7 26.8011C255.933 26.5878 257.207 26.204 258.536 25.621C259.865 25.0381 261.276 24.2561 262.77 23.2324L262.509 22.8059C261.18 23.6874 259.838 24.4125 258.482 24.9812V24.9954ZM231.287 16.166H225.629V0.639977H232.671C233.507 0.639977 234.26 0.824811 234.959 1.2087C235.658 1.59258 236.247 2.11865 236.74 2.80111C237.233 3.48358 237.617 4.29401 237.891 5.24661C238.165 6.19922 238.302 7.25135 238.302 8.41723C238.302 9.5831 238.137 10.6068 237.795 11.5594C237.452 12.512 236.973 13.3367 236.356 14.0049C235.74 14.6874 235 15.2134 234.137 15.5831C233.274 15.9528 232.329 16.1376 231.287 16.1376V16.166Z" fill="#172338"/>
</g>
<defs>
<clipPath id="clip0_3001_4231">
<rect width="309" height="27" fill="white" transform="translate(0.5)"/>
</clipPath>
</defs>
</svg>
