<svg width="28" height="27" viewBox="0 0 28 27" fill="none" xmlns="http://www.w3.org/2000/svg">
<path d="M13.8317 8.7665C11.3113 8.7665 9.27828 10.7995 9.27828 13.3199C9.27828 15.8404 11.3113 17.8734 13.8317 17.8734C16.3522 17.8734 18.3852 15.8404 18.3852 13.3199C18.3852 10.7995 16.3522 8.7665 13.8317 8.7665ZM13.8317 16.2803C12.2029 16.2803 10.8714 14.9527 10.8714 13.3199C10.8714 11.6872 12.199 10.3596 13.8317 10.3596C15.4645 10.3596 16.792 11.6872 16.792 13.3199C16.792 14.9527 15.4605 16.2803 13.8317 16.2803ZM19.6335 8.58024C19.6335 9.17072 19.1579 9.64232 18.5714 9.64232C17.9809 9.64232 17.5093 9.16676 17.5093 8.58024C17.5093 7.99372 17.9849 7.51817 18.5714 7.51817C19.1579 7.51817 19.6335 7.99372 19.6335 8.58024ZM22.6493 9.65817C22.5819 8.23547 22.257 6.97524 21.2147 5.93695C20.1764 4.89865 18.9162 4.57369 17.4935 4.50236C16.0272 4.41914 11.6323 4.41914 10.166 4.50236C8.74724 4.56973 7.48702 4.89469 6.44476 5.93299C5.4025 6.97128 5.0815 8.2315 5.01017 9.6542C4.92695 11.1205 4.92695 15.5154 5.01017 16.9817C5.07754 18.4044 5.4025 19.6646 6.44476 20.7029C7.48702 21.7412 8.74328 22.0662 10.166 22.1375C11.6323 22.2207 16.0272 22.2207 17.4935 22.1375C18.9162 22.0702 20.1764 21.7452 21.2147 20.7029C22.253 19.6646 22.578 18.4044 22.6493 16.9817C22.7325 15.5154 22.7325 11.1245 22.6493 9.65817ZM20.755 18.555C20.4459 19.3317 19.8475 19.9302 19.0668 20.2432C17.8977 20.7069 15.1236 20.5999 13.8317 20.5999C12.5398 20.5999 9.76176 20.7029 8.59665 20.2432C7.81991 19.9341 7.2215 19.3357 6.90843 18.555C6.44476 17.3859 6.55176 14.6119 6.55176 13.3199C6.55176 12.028 6.44872 9.24998 6.90843 8.08487C7.21754 7.30813 7.81595 6.70973 8.59665 6.39665C9.76572 5.93299 12.5398 6.03999 13.8317 6.03999C15.1236 6.03999 17.9017 5.93695 19.0668 6.39665C19.8435 6.70576 20.4419 7.30417 20.755 8.08487C21.2187 9.25395 21.1117 12.028 21.1117 13.3199C21.1117 14.6119 21.2187 17.3899 20.755 18.555Z" fill="#F0F3F5"/>
</svg>
