<svg width="20" height="21" viewBox="0 0 20 21" fill="none" xmlns="http://www.w3.org/2000/svg">
<path d="M17.4789 14.5671C17.4789 14.8221 17.4222 15.0842 17.3018 15.3392C17.1814 15.5942 17.0256 15.835 16.8202 16.0617C16.4731 16.4442 16.0906 16.7204 15.6585 16.8975C15.2335 17.0746 14.7731 17.1667 14.2772 17.1667C13.5547 17.1667 12.7827 16.9967 11.9681 16.6496C11.1535 16.3025 10.3389 15.835 9.53141 15.2471C8.71683 14.6521 7.94475 13.9933 7.20808 13.2637C6.4785 12.5271 5.81975 11.755 5.23183 10.9475C4.651 10.14 4.1835 9.3325 3.8435 8.53208C3.5035 7.72458 3.3335 6.9525 3.3335 6.21583C3.3335 5.73417 3.4185 5.27375 3.5885 4.84875C3.7585 4.41667 4.02766 4.02 4.40308 3.66583C4.85641 3.21958 5.35225 3 5.87641 3C6.07475 3 6.27308 3.0425 6.45016 3.1275C6.63433 3.2125 6.79725 3.34 6.92475 3.52417L8.56808 5.84042C8.69558 6.0175 8.78766 6.18042 8.85141 6.33625C8.91516 6.485 8.95058 6.63375 8.95058 6.76833C8.95058 6.93833 8.901 7.10833 8.80183 7.27125C8.70975 7.43417 8.57516 7.60417 8.40516 7.77417L7.86683 8.33375C7.78891 8.41167 7.7535 8.50375 7.7535 8.61708C7.7535 8.67375 7.76058 8.72333 7.77475 8.78C7.796 8.83667 7.81725 8.87917 7.83141 8.92167C7.95891 9.15542 8.1785 9.46 8.49016 9.82833C8.80891 10.1967 9.14891 10.5721 9.51725 10.9475C9.89975 11.3229 10.2681 11.67 10.6435 11.9887C11.0118 12.3004 11.3164 12.5129 11.5572 12.6404C11.5927 12.6546 11.6352 12.6758 11.6847 12.6971C11.7414 12.7183 11.7981 12.7254 11.8618 12.7254C11.9822 12.7254 12.0743 12.6829 12.1522 12.605L12.6906 12.0738C12.8677 11.8967 13.0377 11.7621 13.2006 11.6771C13.3635 11.5779 13.5264 11.5283 13.7035 11.5283C13.8381 11.5283 13.9797 11.5567 14.1356 11.6204C14.2914 11.6842 14.4543 11.7763 14.6314 11.8967L16.976 13.5612C17.1602 13.6887 17.2877 13.8375 17.3656 14.0146C17.4364 14.1917 17.4789 14.3687 17.4789 14.5671Z" stroke="#172338" stroke-width="1.2" stroke-miterlimit="10"/>
</svg>
