<svg width="20" height="21" viewBox="0 0 20 21" fill="none" xmlns="http://www.w3.org/2000/svg">
<path d="M10.6991 5.22831L11.9332 7.69643C12.1014 8.04001 12.5502 8.36956 12.9288 8.43266L15.1656 8.80429C16.596 9.04269 16.9325 10.0804 15.9018 11.1041L14.1629 12.843C13.8684 13.1375 13.7071 13.7055 13.7983 14.1122L14.2961 16.2648C14.6888 17.9686 13.7843 18.6277 12.2767 17.7372L10.1802 16.4962C9.8016 16.2718 9.17756 16.2718 8.79191 16.4962L6.69541 17.7372C5.1949 18.6277 4.28337 17.9616 4.67603 16.2648L5.17386 14.1122C5.26502 13.7055 5.10375 13.1375 4.80925 12.843L3.07035 11.1041C2.04663 10.0804 2.37619 9.04269 3.80658 8.80429L6.04332 8.43266C6.41494 8.36956 6.86369 8.04001 7.03197 7.69643L8.26603 5.22831C8.93916 3.88907 10.033 3.88907 10.6991 5.22831Z" fill="#28F7EA"/>
</svg>
