<svg width="20" height="21" viewBox="0 0 20 21" fill="none" xmlns="http://www.w3.org/2000/svg">
<path d="M10.799 5.22831L12.033 7.69643C12.2013 8.04001 12.6501 8.36956 13.0287 8.43266L15.2654 8.80429C16.6958 9.04269 17.0324 10.0804 16.0017 11.1041L14.2627 12.843C13.9683 13.1375 13.807 13.7055 13.8981 14.1122L14.396 16.2648C14.7886 17.9686 13.8841 18.6277 12.3766 17.7372L10.2801 16.4962C9.90146 16.2718 9.27741 16.2718 8.89177 16.4962L6.79526 17.7372C5.29475 18.6277 4.38323 17.9616 4.77588 16.2648L5.27372 14.1122C5.36487 13.7055 5.2036 13.1375 4.90911 12.843L3.1702 11.1041C2.14649 10.0804 2.47604 9.04269 3.90643 8.80429L6.14317 8.43266C6.51479 8.36956 6.96354 8.04001 7.13182 7.69643L8.36589 5.22831C9.03901 3.88907 10.1328 3.88907 10.799 5.22831Z" fill="#28F7EA"/>
</svg>
