<svg width="28" height="27" viewBox="0 0 28 27" fill="none" xmlns="http://www.w3.org/2000/svg">
<path d="M22.144 8.8868C21.1289 8.8868 20.1923 8.55051 19.4401 7.98319C18.5775 7.33283 17.9577 6.37884 17.7388 5.27929C17.6846 5.00761 17.6555 4.72725 17.6527 4.43994H14.7528L14.7494 16.7039C14.7494 17.8643 13.9938 18.8481 12.9463 19.1941C12.6423 19.2945 12.314 19.3421 11.9722 19.3234C11.5358 19.2994 11.1269 19.1677 10.7715 18.9551C10.0152 18.5028 9.50242 17.6822 9.48853 16.7435C9.46664 15.2764 10.6527 14.0803 12.1188 14.0803C12.4082 14.0803 12.6861 14.1275 12.9463 14.2133V11.269C12.6719 11.2284 12.3925 11.2072 12.1101 11.2072C10.5054 11.2072 9.00458 11.8742 7.93178 13.0759C7.12092 13.984 6.63454 15.1426 6.5595 16.3575C6.46119 17.9535 7.04518 19.4707 8.17774 20.59C8.34415 20.7544 8.5189 20.9069 8.70164 21.0476C9.67265 21.7949 10.8598 22.1999 12.1101 22.1999C12.3925 22.1999 12.6719 22.1791 12.9463 22.1385C14.1143 21.9654 15.192 21.4308 16.0424 20.59C17.0874 19.5572 17.6648 18.186 17.6711 16.7265L17.6562 10.2452C18.1547 10.6298 18.6998 10.948 19.2848 11.195C20.1947 11.5789 21.1595 11.7734 22.1524 11.7731V8.88611L22.144 8.8868Z" fill="#F0F3F5"/>
</svg>
