<svg width="27" height="27" viewBox="0 0 27 27" fill="none" xmlns="http://www.w3.org/2000/svg">
<path d="M10.0102 19.1128H7.58211V11.2734H10.0102V19.1128ZM10.2525 8.77574C10.2525 7.9908 9.61566 7.35369 8.83113 7.35369C8.04361 7.35369 7.4084 7.9908 7.4084 8.77574C7.4084 9.56095 8.04361 10.1981 8.83113 10.1981C9.61566 10.1981 10.2525 9.56095 10.2525 8.77574ZM19.0981 14.7999C19.0981 12.6954 18.6535 11.1346 16.1952 11.1346C15.0139 11.1346 14.221 11.7254 13.8973 12.3397H13.895V11.2734H11.5362V19.1128H13.895V15.2204C13.895 14.2011 14.1544 13.2136 15.418 13.2136C16.6643 13.2136 16.7046 14.3793 16.7046 15.2852V19.1128H19.0981V14.7999ZM22.22 20.1187V6.52119C22.22 5.37352 21.2864 4.43994 20.1387 4.43994H6.54121C5.39354 4.43994 4.45996 5.37352 4.45996 6.52119V20.1187C4.45996 21.2664 5.39354 22.1999 6.54121 22.1999H20.1387C21.2864 22.1999 22.22 21.2664 22.22 20.1187ZM20.1387 5.82744C20.5212 5.82744 20.8325 6.13868 20.8325 6.52119V20.1187C20.8325 20.5012 20.5212 20.8124 20.1387 20.8124H6.54121C6.1587 20.8124 5.84746 20.5012 5.84746 20.1187V6.52119C5.84746 6.13868 6.1587 5.82744 6.54121 5.82744H20.1387Z" fill="#F0F3F5"/>
</svg>
