<svg width="27" height="27" viewBox="0 0 27 27" fill="none" xmlns="http://www.w3.org/2000/svg">
<path d="M9.99021 19.1328H7.56209V11.2934H9.99021V19.1328ZM10.2325 8.79576C10.2325 8.01082 9.59564 7.37371 8.81111 7.37371C8.02359 7.37371 7.38838 8.01082 7.38838 8.79576C7.38838 9.58097 8.02359 10.2181 8.81111 10.2181C9.59564 10.2181 10.2325 9.58097 10.2325 8.79576ZM19.0781 14.8199C19.0781 12.7155 18.6335 11.1546 16.1752 11.1546C14.9939 11.1546 14.2009 11.7454 13.8772 12.3598H13.8749V11.2934H11.5162V19.1328H13.8749V15.2405C13.8749 14.2211 14.1344 13.2336 15.3979 13.2336C16.6443 13.2336 16.6846 14.3993 16.6846 15.3052V19.1328H19.0781V14.8199ZM22.1999 20.1387V6.54121C22.1999 5.39354 21.2664 4.45996 20.1187 4.45996H6.52119C5.37352 4.45996 4.43994 5.39354 4.43994 6.54121V20.1387C4.43994 21.2864 5.37352 22.22 6.52119 22.22H20.1187C21.2664 22.22 22.1999 21.2864 22.1999 20.1387ZM20.1187 5.84746C20.5012 5.84746 20.8124 6.1587 20.8124 6.54121V20.1387C20.8124 20.5212 20.5012 20.8325 20.1187 20.8325H6.52119C6.13868 20.8325 5.82744 20.5212 5.82744 20.1387V6.54121C5.82744 6.1587 6.13868 5.84746 6.52119 5.84746H20.1187Z" fill="#506A70"/>
</svg>
