<svg width="21" height="21" viewBox="0 0 21 21" fill="none" xmlns="http://www.w3.org/2000/svg">
<path d="M11.349 5.22831L12.5831 7.69643C12.7514 8.04001 13.2001 8.36956 13.5787 8.43266L15.8155 8.80429C17.2459 9.04269 17.5824 10.0804 16.5517 11.1041L14.8128 12.843C14.5183 13.1375 14.357 13.7055 14.4482 14.1122L14.946 16.2648C15.3387 17.9686 14.4342 18.6277 12.9266 17.7372L10.8301 16.4962C10.4515 16.2718 9.82746 16.2718 9.44182 16.4962L7.34531 17.7372C5.8448 18.6277 4.93328 17.9616 5.32593 16.2648L5.82377 14.1122C5.91492 13.7055 5.75365 13.1375 5.45916 12.843L3.72025 11.1041C2.69654 10.0804 3.02609 9.04269 4.45648 8.80429L6.69322 8.43266C7.06484 8.36956 7.51359 8.04001 7.68187 7.69643L8.91594 5.22831C9.58906 3.88907 10.6829 3.88907 11.349 5.22831Z" fill="#28F7EA"/>
</svg>
