<svg width="27" height="28" viewBox="0 0 27 28" fill="none" xmlns="http://www.w3.org/2000/svg">
<path d="M21.6147 9.41683C20.5996 9.41683 19.663 9.08054 18.9108 8.51322C18.0482 7.86286 17.4284 6.90887 17.2095 5.80932C17.1554 5.53764 17.1262 5.25728 17.1234 4.96997H14.2235L14.2201 17.2339C14.2201 18.3943 13.4645 19.3781 12.417 19.7242C12.113 19.8246 11.7847 19.8722 11.4429 19.8534C11.0065 19.8294 10.5976 19.6978 10.2422 19.4852C9.4859 19.0328 8.97313 18.2122 8.95923 17.2735C8.93734 15.8064 10.1234 14.6103 11.5895 14.6103C11.8789 14.6103 12.1568 14.6575 12.417 14.7433V11.799C12.1426 11.7584 11.8632 11.7372 11.5808 11.7372C9.9761 11.7372 8.47529 12.4042 7.40248 13.6059C6.59162 14.514 6.10525 15.6727 6.03021 16.8876C5.93189 18.4836 6.51589 20.0007 7.64845 21.1201C7.81486 21.2844 7.98961 21.4369 8.17234 21.5776C9.14336 22.3249 10.3305 22.73 11.5808 22.73C11.8632 22.73 12.1426 22.7091 12.417 22.6685C13.585 22.4955 14.6627 21.9608 15.5131 21.1201C16.5582 20.0872 17.1355 18.716 17.1418 17.2565L17.1269 10.7752C17.6254 11.1598 18.1705 11.478 18.7555 11.725C19.6654 12.1089 20.6302 12.3035 21.6231 12.3031V9.41614L21.6147 9.41683Z" fill="#506A70"/>
</svg>
