<svg width="20" height="21" viewBox="0 0 20 21" fill="none" xmlns="http://www.w3.org/2000/svg">
<path d="M17.4787 14.5671C17.4787 14.8221 17.422 15.0842 17.3016 15.3392C17.1812 15.5942 17.0253 15.835 16.8199 16.0617C16.4728 16.4442 16.0903 16.7204 15.6583 16.8975C15.2333 17.0746 14.7728 17.1667 14.277 17.1667C13.5545 17.1667 12.7824 16.9967 11.9678 16.6496C11.1533 16.3025 10.3387 15.835 9.53117 15.2471C8.71659 14.6521 7.9445 13.9933 7.20784 13.2637C6.47825 12.5271 5.8195 11.755 5.23159 10.9475C4.65075 10.14 4.18325 9.3325 3.84325 8.53208C3.50325 7.72458 3.33325 6.9525 3.33325 6.21583C3.33325 5.73417 3.41825 5.27375 3.58825 4.84875C3.75825 4.41667 4.02742 4.02 4.40284 3.66583C4.85617 3.21958 5.352 3 5.87617 3C6.0745 3 6.27284 3.0425 6.44992 3.1275C6.63409 3.2125 6.797 3.34 6.9245 3.52417L8.56784 5.84042C8.69534 6.0175 8.78742 6.18042 8.85117 6.33625C8.91492 6.485 8.95034 6.63375 8.95034 6.76833C8.95034 6.93833 8.90075 7.10833 8.80159 7.27125C8.7095 7.43417 8.57492 7.60417 8.40492 7.77417L7.86658 8.33375C7.78867 8.41167 7.75325 8.50375 7.75325 8.61708C7.75325 8.67375 7.76034 8.72333 7.7745 8.78C7.79575 8.83667 7.817 8.87917 7.83117 8.92167C7.95867 9.15542 8.17825 9.46 8.48992 9.82833C8.80867 10.1967 9.14867 10.5721 9.517 10.9475C9.8995 11.3229 10.2678 11.67 10.6433 11.9887C11.0116 12.3004 11.3162 12.5129 11.557 12.6404C11.5924 12.6546 11.6349 12.6758 11.6845 12.6971C11.7412 12.7183 11.7978 12.7254 11.8616 12.7254C11.982 12.7254 12.0741 12.6829 12.152 12.605L12.6903 12.0738C12.8674 11.8967 13.0374 11.7621 13.2003 11.6771C13.3633 11.5779 13.5262 11.5283 13.7033 11.5283C13.8378 11.5283 13.9795 11.5567 14.1353 11.6204C14.2912 11.6842 14.4541 11.7763 14.6312 11.8967L16.9758 13.5612C17.1599 13.6887 17.2874 13.8375 17.3653 14.0146C17.4362 14.1917 17.4787 14.3687 17.4787 14.5671Z" stroke="white" stroke-width="1.2" stroke-miterlimit="10"/>
</svg>
