<svg width="25" height="24" viewBox="0 0 25 24" fill="none" xmlns="http://www.w3.org/2000/svg">
<path d="M14.3529 6.56401C13.785 7.23576 12.8765 7.76559 11.9679 7.6899C11.8543 6.78162 12.2992 5.81657 12.8197 5.22051C13.3875 4.52983 14.3813 4.03785 15.1857 4C15.2804 4.94613 14.9113 5.87333 14.3529 6.56401ZM15.1763 7.86967C13.8607 7.79398 12.7345 8.61711 12.1099 8.61711C11.4758 8.61711 10.5199 7.90751 9.47885 7.92643C8.12548 7.94536 6.86675 8.71172 6.17587 9.93222C4.75625 12.3732 5.80677 15.9874 7.17906 17.9743C7.85102 18.9583 8.65547 20.0369 9.71545 19.999C10.7186 19.9612 11.1161 19.3462 12.3275 19.3462C13.5484 19.3462 13.8986 19.999 14.9586 19.9801C16.0564 19.9612 16.7473 18.9961 17.4193 18.0122C18.1858 16.8957 18.4982 15.8077 18.5171 15.7509C18.4982 15.732 16.3971 14.9278 16.3782 12.5057C16.3593 10.481 18.0344 9.51593 18.1101 9.45916C17.1637 8.05889 15.6873 7.90751 15.1763 7.86967Z" fill="black"/>
</svg>
