<svg width="20" height="20" viewBox="0 0 20 20" fill="none" xmlns="http://www.w3.org/2000/svg">
<path d="M6.03523 4.48737C5.60773 4.05987 4.91462 4.05987 4.48713 4.48737C4.05963 4.91487 4.05963 5.60798 4.48713 6.03547L8.53126 10.0796L4.59617 14.0147C4.16867 14.4422 4.16867 15.1353 4.59617 15.5628C5.02367 15.9903 5.71677 15.9903 6.14427 15.5628L10.0794 11.6277L13.7748 15.3232C14.2023 15.7507 14.8954 15.7507 15.3229 15.3232C15.7504 14.8957 15.7504 14.2026 15.3229 13.7751L11.6275 10.0796L15.432 6.27509C15.8595 5.84759 15.8595 5.15448 15.432 4.72698C15.0045 4.29949 14.3114 4.29949 13.8839 4.72698L10.0794 8.5315L6.03523 4.48737Z" fill="#DA0000"/>
</svg>
