<svg width="20" height="21" viewBox="0 0 20 21" fill="none" xmlns="http://www.w3.org/2000/svg">
<path d="M10.8991 5.22831L12.1331 7.69643C12.3014 8.04001 12.7501 8.36956 13.1288 8.43266L15.3655 8.80429C16.7959 9.04269 17.1325 10.0804 16.1018 11.1041L14.3628 12.843C14.0684 13.1375 13.9071 13.7055 13.9982 14.1122L14.4961 16.2648C14.8887 17.9686 13.9842 18.6277 12.4767 17.7372L10.3802 16.4962C10.0016 16.2718 9.37751 16.2718 8.99187 16.4962L6.89536 17.7372C5.39485 18.6277 4.48333 17.9616 4.87598 16.2648L5.37381 14.1122C5.46497 13.7055 5.3037 13.1375 5.0092 12.843L3.2703 11.1041C2.24659 10.0804 2.57614 9.04269 4.00653 8.80429L6.24327 8.43266C6.61489 8.36956 7.06364 8.04001 7.23192 7.69643L8.46599 5.22831C9.13911 3.88907 10.2329 3.88907 10.8991 5.22831Z" fill="#28F7EA"/>
</svg>
