<svg width="20" height="20" viewBox="0 0 20 20" fill="none" xmlns="http://www.w3.org/2000/svg">
<path d="M6.03474 4.48737C5.60724 4.05987 4.91413 4.05987 4.48664 4.48737C4.05914 4.91487 4.05914 5.60798 4.48664 6.03547L8.53077 10.0796L4.59568 14.0147C4.16818 14.4422 4.16818 15.1353 4.59568 15.5628C5.02318 15.9903 5.71629 15.9903 6.14378 15.5628L10.0789 11.6277L13.7743 15.3232C14.2018 15.7507 14.895 15.7507 15.3224 15.3232C15.7499 14.8957 15.7499 14.2026 15.3224 13.7751L11.627 10.0796L15.4315 6.27509C15.859 5.84759 15.859 5.15448 15.4315 4.72698C15.004 4.29949 14.3109 4.29949 13.8834 4.72698L10.0789 8.5315L6.03474 4.48737Z" fill="#D21E03"/>
</svg>
