<svg width="25" height="24" viewBox="0 0 25 24" fill="none" xmlns="http://www.w3.org/2000/svg">
<path d="M20.3436 10.4336H19.6992V10.4004H12.4996V13.6003H17.0206C16.361 15.463 14.5887 16.8001 12.4996 16.8001C9.84893 16.8001 7.69984 14.651 7.69984 12.0003C7.69984 9.34966 9.84893 7.20057 12.4996 7.20057C13.7231 7.20057 14.8363 7.66215 15.6838 8.41611L17.9465 6.15342C16.5178 4.82189 14.6067 4.00073 12.4996 4.00073C8.08182 4.00073 4.5 7.58255 4.5 12.0003C4.5 16.4181 8.08182 19.9999 12.4996 19.9999C16.9174 19.9999 20.4992 16.4181 20.4992 12.0003C20.4992 11.464 20.444 10.9404 20.3436 10.4336Z" fill="#FFC107"/>
<path d="M5.42188 8.27618L8.05014 10.2037C8.76131 8.44298 10.4836 7.19984 12.4991 7.19984C13.7227 7.19984 14.8358 7.66142 15.6834 8.41538L17.946 6.15269C16.5173 4.82116 14.6062 4 12.4991 4C9.42647 4 6.76181 5.73471 5.42188 8.27618Z" fill="#FF3D00"/>
<path d="M12.4986 19.9999C14.5649 19.9999 16.4424 19.2091 17.8619 17.9232L15.386 15.8281C14.5829 16.4365 13.5845 16.8001 12.4986 16.8001C10.4179 16.8001 8.65119 15.4733 7.98562 13.6218L5.37695 15.6317C6.70089 18.2224 9.38955 19.9999 12.4986 19.9999Z" fill="#4CAF50"/>
<path d="M20.3421 10.4307H19.6977V10.3975H12.498V13.5973H17.019C16.7022 14.4921 16.1267 15.2636 15.3843 15.8256C15.3847 15.8252 15.3851 15.8252 15.3855 15.8248L17.8614 17.9199C17.6862 18.0791 20.4976 15.9972 20.4976 11.9974C20.4976 11.461 20.4424 10.9374 20.3421 10.4307Z" fill="#1976D2"/>
</svg>
