<svg width="27" height="28" viewBox="0 0 27 28" fill="none" xmlns="http://www.w3.org/2000/svg">
<path d="M13.322 9.27651C10.8015 9.27651 8.76851 11.3095 8.76851 13.83C8.76851 16.3504 10.8015 18.3834 13.322 18.3834C15.8424 18.3834 17.8754 16.3504 17.8754 13.83C17.8754 11.3095 15.8424 9.27651 13.322 9.27651ZM13.322 16.7903C11.6932 16.7903 10.3616 15.4627 10.3616 13.83C10.3616 12.1972 11.6892 10.8696 13.322 10.8696C14.9547 10.8696 16.2823 12.1972 16.2823 13.83C16.2823 15.4627 14.9507 16.7903 13.322 16.7903ZM19.1237 9.09025C19.1237 9.68073 18.6482 10.1523 18.0617 10.1523C17.4712 10.1523 16.9996 9.67677 16.9996 9.09025C16.9996 8.50373 17.4751 8.02818 18.0617 8.02818C18.6482 8.02818 19.1237 8.50373 19.1237 9.09025ZM22.1395 10.1682C22.0722 8.74548 21.7472 7.48525 20.7049 6.44696C19.6666 5.40866 18.4064 5.0837 16.9837 5.01237C15.5174 4.92915 11.1225 4.92915 9.65621 5.01237C8.23748 5.07974 6.97725 5.4047 5.935 6.443C4.89274 7.48129 4.57174 8.74151 4.5004 10.1642C4.41718 11.6305 4.41718 16.0254 4.5004 17.4917C4.56778 18.9144 4.89274 20.1746 5.935 21.2129C6.97725 22.2512 8.23351 22.5762 9.65621 22.6475C11.1225 22.7308 15.5174 22.7308 16.9837 22.6475C18.4064 22.5802 19.6666 22.2552 20.7049 21.2129C21.7432 20.1746 22.0682 18.9144 22.1395 17.4917C22.2228 16.0254 22.2228 11.6345 22.1395 10.1682ZM20.2452 19.065C19.9361 19.8418 19.3377 20.4402 18.557 20.7532C17.3879 21.2169 14.6139 21.1099 13.322 21.1099C12.03 21.1099 9.25199 21.2129 8.08688 20.7532C7.31014 20.4441 6.71174 19.8457 6.39866 19.065C5.935 17.8959 6.042 15.1219 6.042 13.83C6.042 12.538 5.93896 9.75999 6.39866 8.59488C6.70777 7.81814 7.30618 7.21974 8.08688 6.90666C9.25596 6.443 12.03 6.55 13.322 6.55C14.6139 6.55 17.3919 6.44696 18.557 6.90666C19.3338 7.21577 19.9322 7.81418 20.2452 8.59488C20.7089 9.76396 20.6019 12.538 20.6019 13.83C20.6019 15.1219 20.7089 17.8999 20.2452 19.065Z" fill="#506A70"/>
</svg>
