<svg width="18" height="18" viewBox="0 0 18 18" fill="none" xmlns="http://www.w3.org/2000/svg">
<path fill-rule="evenodd" clip-rule="evenodd" d="M9 3C5.68629 3 3 5.68629 3 9C3 12.3137 5.68629 15 9 15C12.3137 15 15 12.3137 15 9C15 5.68629 12.3137 3 9 3ZM9.75 6.42187C9.75 6.03426 9.43449 5.71874 9.04688 5.71874C8.65927 5.71874 8.34375 6.03426 8.34375 6.42187C8.34375 6.80948 8.65927 7.125 9.04688 7.125C9.43448 7.125 9.75 6.80948 9.75 6.42187ZM9.04688 7.82812C8.65927 7.82812 8.34375 8.14364 8.34375 8.53125L8.34375 12.0469C8.34375 12.4345 8.65927 12.75 9.04688 12.75C9.43448 12.75 9.75 12.4345 9.75 12.0469L9.75 8.53125C9.75 8.14364 9.43448 7.82812 9.04688 7.82812Z" fill="#767676"/>
</svg>
