<svg width="21" height="21" viewBox="0 0 21 21" fill="none" xmlns="http://www.w3.org/2000/svg">
<path d="M11.2492 5.22831L12.4832 7.69643C12.6515 8.04001 13.1002 8.36956 13.4789 8.43266L15.7156 8.80429C17.146 9.04269 17.4826 10.0804 16.4519 11.1041L14.7129 12.843C14.4185 13.1375 14.2572 13.7055 14.3483 14.1122L14.8462 16.2648C15.2388 17.9686 14.3343 18.6277 12.8268 17.7372L10.7303 16.4962C10.3517 16.2718 9.72761 16.2718 9.34196 16.4962L7.24546 17.7372C5.74495 18.6277 4.83342 17.9616 5.22608 16.2648L5.72391 14.1122C5.81506 13.7055 5.6538 13.1375 5.3593 12.843L3.62039 11.1041C2.59668 10.0804 2.92623 9.04269 4.35663 8.80429L6.59337 8.43266C6.96499 8.36956 7.41374 8.04001 7.58202 7.69643L8.81608 5.22831C9.48921 3.88907 10.583 3.88907 11.2492 5.22831Z" fill="#28F7EA"/>
</svg>
