<svg width="18" height="18" viewBox="0 0 18 18" fill="none" xmlns="http://www.w3.org/2000/svg">
<path d="M10.8141 10.0674C10.8141 9.72063 11.0952 9.4395 11.442 9.4395H11.4476C11.7944 9.4395 12.0755 9.72063 12.0755 10.0674C12.0755 10.4142 11.7944 10.6953 11.4476 10.6953H11.442C11.0952 10.6953 10.8141 10.4142 10.8141 10.0674Z" fill="#666666"/>
<path d="M11.442 11.3232C11.0952 11.3232 10.8141 11.6043 10.8141 11.9511C10.8141 12.2979 11.0952 12.579 11.442 12.579H11.4476C11.7944 12.579 12.0755 12.2979 12.0755 11.9511C12.0755 11.6043 11.7944 11.3232 11.4476 11.3232H11.442Z" fill="#666666"/>
<path d="M8.49131 10.0674C8.49131 9.72063 8.77243 9.4395 9.11921 9.4395H9.12485C9.47164 9.4395 9.75276 9.72063 9.75276 10.0674C9.75276 10.4142 9.47164 10.6953 9.12485 10.6953H9.11921C8.77243 10.6953 8.49131 10.4142 8.49131 10.0674Z" fill="#666666"/>
<path d="M9.11921 11.3232C8.77243 11.3232 8.49131 11.6043 8.49131 11.9511C8.49131 12.2979 8.77243 12.579 9.11921 12.579H9.12485C9.47164 12.579 9.75276 12.2979 9.75276 11.9511C9.75276 11.6043 9.47164 11.3232 9.12485 11.3232H9.11921Z" fill="#666666"/>
<path d="M6.16736 10.0674C6.16736 9.72063 6.44848 9.4395 6.79527 9.4395H6.80091C7.14769 9.4395 7.42881 9.72063 7.42881 10.0674C7.42881 10.4142 7.14769 10.6953 6.80091 10.6953H6.79527C6.44848 10.6953 6.16736 10.4142 6.16736 10.0674Z" fill="#666666"/>
<path d="M6.79527 11.3232C6.44848 11.3232 6.16736 11.6043 6.16736 11.9511C6.16736 12.2979 6.44848 12.579 6.79527 12.579H6.80091C7.14769 12.579 7.42881 12.2979 7.42881 11.9511C7.42881 11.6043 7.14769 11.3232 6.80091 11.3232H6.79527Z" fill="#666666"/>
<path fill-rule="evenodd" clip-rule="evenodd" d="M7.0814 2.72093C7.0814 2.46084 6.87056 2.25 6.61047 2.25C6.35038 2.25 6.13954 2.46084 6.13954 2.72093V3.21086C5.17513 3.29112 4.41041 3.62533 3.87148 4.20572C3.25344 4.87129 3 5.78827 3 6.80233V12.1395C3 13.1536 3.25344 14.0706 3.87148 14.7361C4.49537 15.408 5.42187 15.75 6.61047 15.75H11.6337C12.8223 15.75 13.7488 15.408 14.3727 14.7361C14.9907 14.0706 15.2442 13.1536 15.2442 12.1395V6.80233C15.2442 5.78827 14.9907 4.87129 14.3727 4.20572C13.8338 3.62534 13.0691 3.29113 12.1047 3.21086V2.72093C12.1047 2.46084 11.8938 2.25 11.6338 2.25C11.3737 2.25 11.1628 2.46084 11.1628 2.72093V3.19186H7.0814V2.72093ZM6.13954 4.1565V4.60465C6.13954 4.86474 6.35038 5.07558 6.61047 5.07558C6.87056 5.07558 7.0814 4.86474 7.0814 4.60465V4.13372H11.1628V4.60465C11.1628 4.86474 11.3737 5.07558 11.6338 5.07558C11.8938 5.07558 12.1047 4.86474 12.1047 4.60465V4.15651C12.8487 4.23211 13.3516 4.49024 13.6825 4.84661C14.0692 5.26302 14.2851 5.88221 14.3013 6.70184H3.94285C3.95906 5.88221 4.17499 5.26302 4.56166 4.84661C4.89259 4.49023 5.39548 4.2321 6.13954 4.1565ZM3.94186 7.6437V12.1395C3.94186 13.0092 4.15935 13.662 4.56166 14.0953C4.95812 14.5222 5.60139 14.8081 6.61047 14.8081H11.6337C12.6428 14.8081 13.2861 14.5222 13.6825 14.0953C14.0848 13.662 14.3023 13.0092 14.3023 12.1395V7.6437H3.94186Z" fill="#666666"/>
</svg>
