<svg width="20" height="21" viewBox="0 0 20 21" fill="none" xmlns="http://www.w3.org/2000/svg">
<path d="M14.0006 5.83325H14.6673C15.1977 5.83325 15.7064 6.04396 16.0815 6.41904C16.4566 6.79411 16.6673 7.30281 16.6673 7.83325V8.49991H3.33398V7.83325C3.33398 7.30281 3.5447 6.79411 3.91977 6.41904C4.29484 6.04396 4.80355 5.83325 5.33398 5.83325H6.00065V4.49992C6.00065 4.32311 6.07089 4.15354 6.19591 4.02851C6.32093 3.90349 6.4905 3.83325 6.66731 3.83325C6.84412 3.83325 7.01369 3.90349 7.13872 4.02851C7.26374 4.15354 7.33398 4.32311 7.33398 4.49992V5.83325H12.6673V4.49992C12.6673 4.32311 12.7375 4.15354 12.8626 4.02851C12.9876 3.90349 13.1572 3.83325 13.334 3.83325C13.5108 3.83325 13.6804 3.90349 13.8054 4.02851C13.9304 4.15354 14.0006 4.32311 14.0006 4.49992V5.83325Z" fill="black"/>
<path d="M3.91978 16.5808C3.5447 16.2057 3.33399 15.697 3.33399 15.1666V9.83326H16.6673V15.1666C16.6673 15.697 16.4566 16.2057 16.0815 16.5808C15.7065 16.9559 15.1977 17.1666 14.6673 17.1666H5.33399C4.80356 17.1666 4.29485 16.9559 3.91978 16.5808Z" fill="black"/>
</svg>
