<svg width="24" height="24" viewBox="0 0 24 24" fill="none" xmlns="http://www.w3.org/2000/svg">
<path d="M16.8 6.4H17.6C18.2365 6.4 18.847 6.65285 19.297 7.10294C19.7471 7.55303 20 8.16348 20 8.79999V9.59999H4V8.79999C4 8.16348 4.25286 7.55303 4.70294 7.10294C5.15303 6.65285 5.76348 6.4 6.4 6.4H7.2V4.8C7.2 4.58783 7.28428 4.38434 7.43431 4.23431C7.58434 4.08429 7.78782 4 8 4C8.21217 4 8.41565 4.08429 8.56568 4.23431C8.71571 4.38434 8.79999 4.58783 8.79999 4.8V6.4H15.2V4.8C15.2 4.58783 15.2843 4.38434 15.4343 4.23431C15.5843 4.08429 15.7878 4 16 4C16.2122 4 16.4156 4.08429 16.5657 4.23431C16.7157 4.38434 16.8 4.58783 16.8 4.8V6.4Z" fill="black"/>
<path d="M4.70295 19.2971C4.25286 18.847 4.00001 18.2365 4.00001 17.6V11.2H20V17.6C20 18.2365 19.7471 18.847 19.297 19.2971C18.847 19.7471 18.2365 20 17.6 20H6.40001C5.76349 20 5.15304 19.7471 4.70295 19.2971Z" fill="black"/>
</svg>
