<svg width="20" height="20" viewBox="0 0 20 20" fill="none" xmlns="http://www.w3.org/2000/svg">
<rect width="12" height="13.3333" transform="translate(4.1665 3.33325)" fill="black"/>
<path d="M7.5 3.33325V5.33325" stroke="black" stroke-width="1.2" stroke-miterlimit="10" stroke-linecap="round" stroke-linejoin="round"/>
<path d="M12.833 3.33325V5.33325" stroke="black" stroke-width="1.2" stroke-miterlimit="10" stroke-linecap="round" stroke-linejoin="round"/>
<path d="M4.5 8.05981H15.8333" stroke="black" stroke-width="1.2" stroke-miterlimit="10" stroke-linecap="round" stroke-linejoin="round"/>
<path d="M16.1665 7.66659V13.3333C16.1665 15.3333 15.1665 16.6666 12.8332 16.6666H7.49984C5.1665 16.6666 4.1665 15.3333 4.1665 13.3333V7.66659C4.1665 5.66659 5.1665 4.33325 7.49984 4.33325H12.8332C15.1665 4.33325 16.1665 5.66659 16.1665 7.66659Z" stroke="black" stroke-width="1.2" stroke-miterlimit="10" stroke-linecap="round" stroke-linejoin="round"/>
<path d="M12.6295 11.1331H12.6355" stroke="black" stroke-width="1.5" stroke-linecap="round" stroke-linejoin="round"/>
<path d="M12.6295 13.1331H12.6355" stroke="black" stroke-width="1.5" stroke-linecap="round" stroke-linejoin="round"/>
<path d="M10.1637 11.1331H10.1696" stroke="black" stroke-width="1.5" stroke-linecap="round" stroke-linejoin="round"/>
<path d="M10.1637 13.1331H10.1696" stroke="black" stroke-width="1.5" stroke-linecap="round" stroke-linejoin="round"/>
<path d="M7.69588 11.1331H7.70187" stroke="black" stroke-width="1.5" stroke-linecap="round" stroke-linejoin="round"/>
<path d="M7.69588 13.1331H7.70187" stroke="black" stroke-width="1.5" stroke-linecap="round" stroke-linejoin="round"/>
</svg>
