<svg width="280" height="24" viewBox="0 0 280 24" fill="none" xmlns="http://www.w3.org/2000/svg">
<g clip-path="url(#clip0_3001_3997)">
<path d="M99.2142 18.717C98.7425 19.4626 98.097 20.0566 97.2776 20.499C96.4583 20.9413 95.6141 21.1562 94.7203 21.1562H87.0236V9.06138H93.5906C94.3603 9.06138 95.0183 9.2004 95.5769 9.49108C96.1231 9.78176 96.4955 10.1483 96.6693 10.6159L96.7686 10.8813H97.1907V7.08981H96.7686L96.6693 7.32994C96.5328 7.73436 96.1728 8.06296 95.6141 8.30308C95.0555 8.54321 94.3851 8.66959 93.5906 8.66959H87.0236V0.555848H94.4845C95.3783 0.555848 96.1976 0.770698 96.9549 1.21304C97.7121 1.65537 98.2583 2.23673 98.6059 2.99503L98.7921 3.45H99.2142C99.2018 2.93183 99.1646 2.38839 99.1397 1.80703C99.1025 1.22567 99.0901 0.68223 99.0901 0.164062H83.8828V0.669592H84.1187C84.5159 0.669592 84.8511 0.846527 85.087 1.18776C85.3353 1.54163 85.4594 2.00924 85.4594 2.5906V19.1214C85.4594 19.8039 85.3229 20.2841 85.0497 20.5874C84.7766 20.8908 84.3918 21.0424 83.8828 21.0424V21.5479H99.2763C99.2887 21.4721 99.3632 21.1435 99.4873 20.5369C99.6115 19.9303 99.7604 19.1846 99.9342 18.2873H99.537L99.2266 18.717H99.2142Z" fill="white"/>
<path d="M118.692 3.08349C117.761 2.14826 116.631 1.42789 115.303 0.922356C113.975 0.416827 112.51 0.164062 110.871 0.164062H102.467V0.644315H102.703C103.1 0.644315 103.423 0.82125 103.671 1.16248C103.919 1.51635 104.043 1.98397 104.043 2.5906V19.1214C104.043 19.8039 103.907 20.2841 103.634 20.5874C103.361 20.8908 102.976 21.0424 102.467 21.0424V21.5479H112.373C113.751 21.5479 115.017 21.2952 116.172 20.777C117.314 20.2589 118.295 19.5385 119.102 18.6032C119.909 17.668 120.529 16.5432 120.976 15.2162C121.423 13.9018 121.647 12.4358 121.647 10.8307C121.647 9.22567 121.386 7.77228 120.877 6.4579C120.356 5.14353 119.635 4.01872 118.692 3.08349ZM119.524 15.0519C119.151 16.3157 118.63 17.4026 117.96 18.2999C117.289 19.1972 116.47 19.8923 115.526 20.3852C114.583 20.8781 113.528 21.1182 112.373 21.1182H105.62V0.555848H110.871C112.249 0.555848 113.515 0.795974 114.645 1.28886C115.775 1.78176 116.743 2.47686 117.55 3.37417C118.357 4.27149 118.978 5.35837 119.412 6.6222C119.847 7.88602 120.07 9.28887 120.07 10.8181C120.07 12.3473 119.884 13.7754 119.524 15.0393V15.0519Z" fill="white"/>
<path d="M77.464 0.644559H77.6998C78.0971 0.644559 78.4199 0.821495 78.6557 1.16273C78.8916 1.50396 79.0157 1.98421 79.0157 2.59085V19.1722L64.4912 0.164307H61.4746V0.644559H61.7105C62.1077 0.644559 62.4429 0.821495 62.6788 1.16273C62.9271 1.5166 63.0512 1.98421 63.0512 2.59085V19.1217C63.0512 19.8041 62.9146 20.2844 62.6415 20.5877C62.3684 20.891 61.9836 21.0427 61.4746 21.0427V21.5482H65.0995V21.0427H64.8388C64.4416 21.0427 64.1188 20.8657 63.8829 20.5245C63.6471 20.1833 63.5229 19.703 63.5229 19.1217V1.60506L78.2833 20.891L78.9909 21.8515H79.5123V2.59085C79.5123 1.90838 79.6489 1.41549 79.9095 1.11217C80.1702 0.796218 80.5551 0.644559 81.0641 0.644559V0.164307H77.464V0.644559Z" fill="white"/>
<path d="M55.0069 0.644559H55.2428C55.6401 0.644559 55.9628 0.821495 56.1987 1.16273C56.4346 1.50396 56.5587 1.98421 56.5587 2.59085V19.1722L42.0342 0.164307H39.0176V0.644559H39.2534C39.6507 0.644559 39.9859 0.821495 40.2217 1.16273C40.47 1.5166 40.5942 1.98421 40.5942 2.59085V19.1217C40.5942 19.8041 40.4576 20.2844 40.1845 20.5877C39.9114 20.891 39.5266 21.0427 39.0176 21.0427V21.5482H42.6425V21.0427H42.3818C41.9845 21.0427 41.6618 20.8657 41.4259 20.5245C41.19 20.1833 41.0659 19.703 41.0659 19.1217V1.60506L55.8263 20.891L56.5339 21.8515H57.0553V2.59085C57.0553 1.90838 57.1918 1.41549 57.4525 1.11217C57.7132 0.796218 58.098 0.644559 58.607 0.644559V0.164307H55.0069V0.644559Z" fill="white"/>
<path d="M161.942 10.6919C161.271 10.1358 160.514 9.66819 159.67 9.26377C158.826 8.85934 157.944 8.50547 157.05 8.17688C156.157 7.86092 155.288 7.55761 154.431 7.27956C153.587 7.00152 152.83 6.71084 152.159 6.38225C151.489 6.06629 150.955 5.71242 150.558 5.32064C150.161 4.94149 149.95 4.47388 149.95 3.94307C149.95 3.24797 150.099 2.66661 150.409 2.199C150.719 1.73138 151.117 1.36487 151.625 1.09947C152.134 0.834066 152.706 0.644493 153.363 0.543387C154.009 0.442281 154.667 0.37909 155.337 0.37909C156.231 0.37909 157.001 0.454919 157.646 0.606578C158.292 0.758237 158.838 0.960448 159.273 1.21321C159.707 1.46598 160.067 1.74402 160.34 2.05997C160.613 2.37593 160.824 2.69189 160.986 3.03312C161.122 3.29852 161.259 3.5892 161.371 3.90516C161.482 4.22111 161.606 4.49915 161.755 4.75192H162.277L162.177 1.59236L162.041 1.83249C162.041 1.83249 162.091 1.7061 162.177 1.56708C161.793 1.35223 161.346 1.15002 160.824 0.94781C160.303 0.745598 159.757 0.581302 159.161 0.442281C158.565 0.30326 157.944 0.189516 157.311 0.113687C156.666 0.0378576 156.032 -0.0126953 155.412 -0.0126953C154.605 -0.0126953 153.81 0.0631341 153.028 0.227431C152.246 0.391728 151.551 0.644493 150.93 0.998363C150.31 1.35223 149.813 1.83249 149.428 2.41384C149.056 3.00784 148.857 3.72822 148.857 4.57498C148.857 5.21953 149.056 5.77561 149.465 6.25587C149.863 6.73612 150.409 7.16582 151.079 7.54497C151.75 7.92411 152.519 8.26535 153.363 8.59394C154.208 8.9099 155.077 9.23849 155.958 9.55445C156.839 9.8704 157.708 10.2243 158.553 10.6034C159.397 10.9826 160.166 11.4123 160.837 11.9052C161.507 12.398 162.053 12.9668 162.451 13.5987C162.848 14.2432 163.059 15.0015 163.059 15.8736C163.059 16.5687 162.897 17.2385 162.562 17.883C162.227 18.5276 161.768 19.0963 161.197 19.6018C160.613 20.1074 159.943 20.5118 159.186 20.8151C158.428 21.1184 157.621 21.2701 156.777 21.2701C156.144 21.2701 155.536 21.2448 154.94 21.2069C154.344 21.1563 153.736 21.0932 153.128 21.0047C152.234 20.8025 151.414 20.436 150.67 19.8672C149.925 19.3112 149.354 18.6034 148.944 17.7693L148.547 16.9731H148.025L148.125 20.1074C148.559 20.3601 149.093 20.575 149.701 20.7772C150.31 20.9794 150.992 21.1437 151.75 21.2701C152.507 21.4091 153.301 21.5102 154.158 21.5734C155.002 21.6492 155.884 21.6745 156.777 21.6745C157.795 21.6745 158.751 21.4976 159.645 21.1311C160.539 20.7646 161.321 20.2843 161.979 19.6777C162.649 19.071 163.171 18.3886 163.555 17.6176C163.94 16.8467 164.139 16.0631 164.139 15.2669C164.139 14.2559 163.94 13.3712 163.531 12.6382C163.133 11.8925 162.6 11.248 161.929 10.7045L161.942 10.6919Z" fill="white"/>
<path d="M15.6285 20.0187C15.0202 19.5132 14.2754 18.856 13.4188 18.0345C12.5622 17.2257 11.5443 16.2273 10.3773 15.0519L4.65445 9.32678L12.3015 2.5906H12.3264C13.8036 1.3015 15.045 0.669592 16.0878 0.669592V0.164062H12.9347V0.669592C13.0712 0.669592 13.1705 0.68223 13.2078 0.707506C13.245 0.732783 13.2698 0.770698 13.2698 0.795974C13.2698 1.02346 12.9347 1.4658 12.2767 2.11035L3.15234 10.0851L9.17318 16.1009C10.2036 17.1119 11.1346 17.984 11.9539 18.7043C12.7733 19.4247 13.5181 20.0187 14.1885 20.4737C14.8588 20.9287 15.4547 21.2573 16.0009 21.4595C16.5472 21.6617 17.0561 21.7628 17.5279 21.7628H18.1858V21.4468C17.9003 21.4468 17.5651 21.3331 17.1554 21.1182C16.7582 20.8908 16.2492 20.5243 15.6285 20.0187Z" fill="white"/>
<path d="M3.56285 1.12481C3.83596 0.821495 4.22079 0.669836 4.72977 0.669836V0.164307H0V0.669836H0.235868C0.633119 0.669836 0.955886 0.846771 1.19175 1.188C1.42762 1.54187 1.55176 2.00949 1.55176 2.59085V19.1217C1.55176 19.8041 1.41521 20.297 1.15451 20.6003C0.893815 20.9163 0.508978 21.0679 0 21.0679V21.5482H4.72977V21.0679H4.46908C4.07182 21.0679 3.74906 20.891 3.51319 20.5498C3.27732 20.1959 3.15318 19.7283 3.15318 19.1217V2.59085C3.15318 1.90838 3.28974 1.42813 3.56285 1.12481Z" fill="white"/>
<path d="M36.1127 18.7172C35.6409 19.4629 34.9954 20.0569 34.1761 20.4992C33.3567 20.9416 32.5126 21.1564 31.6188 21.1564H23.922V9.06162H30.4891C31.2587 9.06162 31.9167 9.20064 32.4753 9.49132C33.0216 9.782 33.394 10.1485 33.5678 10.6161L33.6671 10.8815H34.0892V7.09006H33.6671L33.5678 7.33018C33.4312 7.73461 33.0712 8.0632 32.5126 8.30333C31.9539 8.54345 31.2836 8.66984 30.4891 8.66984H23.922V0.556092H31.3829C32.2767 0.556092 33.096 0.770942 33.8533 1.21328C34.6106 1.65562 35.1568 2.23698 35.5044 2.99527L35.6906 3.45025H36.1127C36.1002 2.93208 36.063 2.38864 36.0382 1.80728C36.0009 1.22592 35.9885 0.682474 35.9885 0.164307H20.7812V0.669836H21.0171C21.4144 0.669836 21.7495 0.846771 21.9854 1.188C22.2337 1.54187 22.3578 2.00949 22.3578 2.59085V19.1217C22.3578 19.8041 22.2213 20.2844 21.9482 20.5877C21.6751 20.891 21.2902 21.0427 20.7812 21.0427V21.5482H36.1747C36.1871 21.4724 36.2616 21.1438 36.3858 20.5371C36.5099 19.9305 36.6589 19.1848 36.8327 18.2875H36.4354L36.1251 18.7172H36.1127Z" fill="white"/>
<path d="M137.04 0.404189C137.04 0.581124 137.077 0.669592 137.139 0.669592H137.35C137.871 0.669592 138.132 0.922356 138.132 1.41525C138.132 1.80703 137.946 2.3252 137.586 2.96975L131.838 12.8908L125.929 2.46422C125.644 1.99661 125.507 1.60482 125.507 1.26359C125.507 0.871803 125.718 0.669592 126.14 0.669592H126.401V0.164062H121.721V0.669592C122.118 0.669592 122.503 0.833889 122.875 1.16248C123.248 1.49108 123.632 1.97133 124.03 2.5906L130.411 14.1167V19.1214C130.411 19.6901 130.286 20.1577 130.038 20.5116C129.79 20.8655 129.467 21.0424 129.07 21.0424H128.834V21.5479H133.564V21.0424H133.328C132.931 21.0424 132.595 20.8655 132.36 20.5116C132.111 20.1577 131.987 19.6901 131.987 19.1214V13.51C132.968 11.8165 133.787 10.401 134.458 9.26359C135.128 8.12615 135.662 7.17828 136.084 6.44526C136.506 5.69961 136.829 5.13089 137.065 4.72646C137.3 4.32204 137.487 3.99345 137.623 3.75332C137.76 3.51319 137.871 3.31098 137.971 3.15932C138.058 3.00766 138.169 2.83073 138.318 2.61588C139.125 1.32678 139.969 0.694868 140.863 0.694868V0.164062H137.027V0.404189H137.04Z" fill="white"/>
<path d="M144.363 0.164062C144.053 0.164062 143.792 0.265168 143.606 0.454742C143.407 0.656954 143.32 0.89708 143.32 1.2004C143.32 1.50372 143.42 1.75648 143.606 1.95869C143.804 2.1609 144.04 2.26201 144.338 2.26201H144.512C144.512 2.26201 144.636 2.24937 144.686 2.21146C144.698 2.29992 144.711 2.37575 144.723 2.45158C144.723 2.52741 144.736 2.5906 144.736 2.66643C144.736 3.14669 144.624 3.58902 144.413 3.98081C144.189 4.37259 143.916 4.66327 143.581 4.84021L143.718 5.05506C144.276 4.76438 144.723 4.34732 145.071 3.76596C145.418 3.19724 145.58 2.57796 145.58 1.8955C145.58 1.42789 145.493 1.02346 145.307 0.68223C145.12 0.32836 144.81 0.164062 144.376 0.164062H144.363Z" fill="white"/>
<path d="M221.841 15.0017C222.449 15.7979 223.219 16.4678 224.125 16.9986C225.032 17.5294 226.099 17.8706 227.303 18.0223C227.552 18.0602 227.8 18.0854 228.048 18.0981C228.297 18.1107 228.557 18.1234 228.818 18.1234C230.258 18.1234 231.512 17.8832 232.604 17.403C233.684 16.9227 234.603 16.2655 235.335 15.4567C236.068 14.6352 236.626 13.6747 236.986 12.5878C237.359 11.4883 237.533 10.3382 237.533 9.12494C237.533 8.02542 237.384 6.96381 237.073 5.95275C236.763 4.94169 236.304 4.04437 235.683 3.24817C235.062 2.45196 234.293 1.79477 233.386 1.26396C232.48 0.733157 231.412 0.391925 230.208 0.240266C229.96 0.202351 229.712 0.177075 229.476 0.164437C229.228 0.151798 228.979 0.13916 228.719 0.13916C227.279 0.13916 226.025 0.379287 224.932 0.859539C223.852 1.33979 222.934 1.99698 222.201 2.80583C221.469 3.62731 220.91 4.57518 220.55 5.66207C220.178 6.74896 220.004 7.89903 220.004 9.1123C220.004 10.2118 220.153 11.2734 220.463 12.2845C220.774 13.2956 221.233 14.1929 221.841 15.0017ZM222.04 5.81373C222.35 4.76475 222.797 3.8548 223.405 3.05859C224.014 2.26238 224.771 1.64311 225.677 1.1755C226.583 0.707881 227.639 0.480392 228.83 0.480392C229.004 0.480392 229.178 0.480392 229.339 0.493031C229.501 0.493031 229.662 0.518307 229.823 0.530945C230.841 0.669966 231.723 0.99856 232.492 1.51673C233.25 2.03489 233.883 2.67944 234.392 3.43774C234.901 4.20867 235.286 5.06807 235.546 6.04121C235.807 7.01436 235.944 8.03805 235.944 9.09967C235.944 10.275 235.795 11.3872 235.484 12.4235C235.174 13.4725 234.727 14.3824 234.119 15.1787C233.51 15.9749 232.766 16.6068 231.859 17.0618C230.953 17.5294 229.91 17.7569 228.719 17.7569C228.371 17.7569 228.036 17.7316 227.725 17.681C226.708 17.542 225.814 17.2134 225.044 16.7079C224.274 16.2024 223.629 15.5578 223.132 14.7995C222.623 14.0286 222.238 13.1565 221.978 12.1834C221.717 11.1976 221.581 10.1739 221.581 9.1123C221.581 7.94959 221.729 6.85006 222.04 5.81373Z" fill="white"/>
<path d="M256.811 0.669836H257.096C257.493 0.669836 257.853 0.872047 258.164 1.28911C258.474 1.69353 258.636 2.18642 258.673 2.72987L258.648 14.5213C258.648 15.3807 258.474 16.2022 258.127 16.9858C257.779 17.7694 257.27 18.4645 256.6 19.0585C255.929 19.6525 255.122 20.1327 254.167 20.4866C253.211 20.8405 252.131 21.0174 250.926 21.0174C249.722 21.0174 248.742 20.8278 247.823 20.4613C246.917 20.0822 246.147 19.5766 245.514 18.9321C244.881 18.2875 244.397 17.5545 244.061 16.7078C243.714 15.8736 243.552 14.989 243.552 14.0664L243.528 2.46446C243.565 1.98421 243.701 1.56715 243.962 1.21328C244.21 0.859409 244.508 0.682474 244.844 0.682474H245.079V0.164307H240.35V0.669836H240.585C240.933 0.669836 241.243 0.872048 241.517 1.26383C241.79 1.65562 241.926 2.11059 241.926 2.62876V13.7251C241.926 14.7994 242.125 15.8104 242.534 16.7583C242.932 17.7062 243.515 18.5529 244.272 19.2733C245.03 19.9937 245.948 20.5624 247.041 20.9795C248.133 21.3965 249.362 21.6114 250.728 21.6114C252.093 21.6114 253.223 21.4218 254.278 21.0553C255.333 20.6762 256.215 20.1706 256.935 19.5261C257.655 18.8815 258.201 18.1485 258.586 17.3017C258.971 16.4676 259.169 15.5956 259.169 14.6856V2.89416C259.169 2.60348 259.219 2.33808 259.306 2.06004C259.393 1.79464 259.505 1.55451 259.654 1.3523C259.79 1.15009 259.951 0.985792 260.125 0.859409C260.299 0.733027 260.485 0.669836 260.671 0.669836H260.957V0.164307H256.836V0.669836H256.811Z" fill="white"/>
<path d="M279.504 4.52443C279.168 3.61448 278.709 2.84355 278.113 2.199C277.517 1.55445 276.81 1.06156 275.978 0.707686C275.146 0.353815 274.228 0.17688 273.21 0.17688H263.539V0.682409H263.8C264.197 0.682409 264.532 0.859344 264.768 1.21321C265.016 1.56709 265.14 2.0347 265.14 2.60342V19.1342C265.14 19.7029 265.016 20.1706 264.768 20.5371C264.52 20.9036 264.197 21.0805 263.8 21.0805H263.539V21.5608H268.393V21.0805H268.132C267.735 21.0805 267.4 20.9036 267.164 20.5371C266.916 20.1706 266.792 19.7029 266.792 19.1342V14.7993H271.943C273.135 14.7993 274.228 14.6224 275.208 14.2811C276.201 13.9273 277.046 13.4344 277.753 12.8025C278.461 12.1579 279.019 11.3996 279.404 10.5023C279.802 9.605 280 8.61922 280 7.53233C280 6.44544 279.839 5.44702 279.504 4.53707V4.52443ZM277.803 10.3127C277.493 11.1595 277.07 11.8925 276.512 12.4865C275.966 13.0932 275.295 13.5608 274.513 13.8894C273.731 14.218 272.874 14.3823 271.931 14.3823H266.779V0.556027H273.185C273.942 0.556027 274.625 0.720324 275.246 1.06156C275.866 1.40279 276.4 1.8704 276.847 2.47704C277.294 3.08367 277.641 3.81669 277.89 4.67609C278.138 5.53549 278.262 6.47072 278.262 7.50705C278.262 8.54339 278.113 9.45334 277.803 10.3001V10.3127Z" fill="white"/>
<path d="M193.921 10.1106H194.182C194.579 10.1106 194.902 10.2875 195.137 10.6288C195.373 10.97 195.497 11.4502 195.497 12.0569V19.9684C194.529 20.3728 193.437 20.7014 192.208 20.9289C190.979 21.1564 189.775 21.2828 188.583 21.2828C187.254 21.2828 186.038 21.03 184.958 20.5371C183.865 20.0442 182.947 19.3239 182.177 18.4139C181.407 17.4913 180.812 16.3918 180.389 15.1153C179.967 13.8262 179.756 12.4107 179.756 10.831C179.756 9.25118 179.967 7.8357 180.389 6.5466C180.812 5.2575 181.407 4.17062 182.177 3.26066C182.947 2.35071 183.878 1.64297 184.958 1.15008C186.038 0.657188 187.254 0.404423 188.583 0.404423C189.576 0.404423 190.569 0.480253 191.55 0.64455C192.096 0.745656 192.617 0.935229 193.126 1.18799C193.635 1.44076 194.095 1.76935 194.517 2.1485C194.939 2.52765 195.299 2.95735 195.622 3.4376C195.932 3.90521 196.193 4.41074 196.379 4.95419H196.9L196.764 1.93365C196.255 1.64297 195.684 1.39021 195.038 1.15008C194.393 0.909953 193.722 0.707741 193.002 0.530806C192.282 0.366509 191.55 0.227488 190.793 0.139021C190.035 0.0505529 189.29 0 188.558 0C186.969 0 185.517 0.252765 184.225 0.770932C182.934 1.2891 181.817 2.02212 180.886 2.98262C179.955 3.93049 179.235 5.08057 178.726 6.40758C178.217 7.7346 177.969 9.21327 177.969 10.831C177.969 12.4487 178.217 13.9526 178.726 15.2796C179.235 16.6066 179.955 17.7441 180.886 18.7046C181.817 19.6524 182.922 20.3981 184.225 20.9163C185.517 21.4344 186.969 21.6872 188.558 21.6872C189.315 21.6872 190.085 21.6367 190.867 21.5482C191.661 21.4597 192.406 21.3333 193.139 21.1564C193.871 20.9921 194.554 20.7773 195.2 20.5371C195.845 20.297 196.416 20.0316 196.913 19.7536V12.0569C196.913 11.3744 197.049 10.8815 197.31 10.5782C197.571 10.2622 197.955 10.1106 198.464 10.1106V9.60505H193.896V10.1106H193.921Z" fill="white"/>
<path d="M233.77 22.2054C232.541 22.7109 231.312 23.0395 230.083 23.1785C228.854 23.3175 227.6 23.267 226.359 23.0142C225.105 22.7615 223.864 22.2686 222.647 21.5482C221.753 21.03 220.847 20.4108 219.941 19.6904C219.035 18.97 218.116 18.2623 217.185 17.5672C216.254 16.872 215.31 16.2401 214.367 15.6841C213.411 15.128 212.43 14.7362 211.412 14.5213C212.306 14.3191 213.113 14.0158 213.833 13.5987C214.553 13.1817 215.161 12.6635 215.67 12.0569C216.179 11.4502 216.564 10.7678 216.837 9.99685C217.11 9.22592 217.247 8.39179 217.247 7.48184C217.247 6.39495 217.086 5.39653 216.75 4.49922C216.415 3.60191 215.956 2.83097 215.36 2.18642C214.764 1.54187 214.044 1.04898 213.2 0.695112C212.356 0.341242 211.425 0.164307 210.419 0.164307H200.773V0.644559H201.034C201.431 0.644559 201.767 0.821495 202.002 1.17537C202.251 1.52924 202.375 2.00949 202.375 2.59085V19.1217C202.375 19.6904 202.251 20.158 202.002 20.5119C201.754 20.8657 201.431 21.0427 201.034 21.0427H200.773V21.5482H205.627V21.0427H205.367C204.969 21.0427 204.634 20.8657 204.398 20.5119C204.15 20.158 204.026 19.6904 204.026 19.1217V14.7615H209.153C209.501 14.7615 209.836 14.7615 210.134 14.7867C210.444 14.7994 210.767 14.8752 211.114 15.0016C211.462 15.128 211.859 15.3302 212.294 15.6082C212.728 15.8863 213.25 16.2781 213.845 16.7709C214.479 17.3017 215.149 17.8705 215.857 18.4771C216.564 19.0837 217.334 19.6904 218.166 20.2844C218.997 20.8784 219.904 21.4471 220.884 21.9779C221.865 22.5087 222.933 22.9637 224.087 23.3175C225.08 23.6335 226.098 23.8484 227.129 23.9495C228.159 24.0506 229.239 24 230.344 23.8104C231.461 23.6209 232.616 23.2796 233.82 22.7615C235.024 22.2433 236.303 21.5482 237.656 20.6382L237.42 20.2591C236.216 21.0427 234.999 21.6872 233.77 22.1927V22.2054ZM209.128 14.357H204.001V0.556092H210.382C211.139 0.556092 211.822 0.720389 212.455 1.06162C213.088 1.40285 213.622 1.87047 214.069 2.4771C214.516 3.08374 214.863 3.80412 215.112 4.65088C215.36 5.49764 215.484 6.43287 215.484 7.4692C215.484 8.50554 215.335 9.41549 215.025 10.2623C214.714 11.109 214.28 11.842 213.721 12.436C213.163 13.0427 212.492 13.5103 211.71 13.8389C210.928 14.1675 210.072 14.3318 209.128 14.3318V14.357Z" fill="white"/>
</g>
<defs>
<clipPath id="clip0_3001_3997">
<rect width="280" height="24" fill="white"/>
</clipPath>
</defs>
</svg>
