<svg width="20" height="21" viewBox="0 0 20 21" fill="none" xmlns="http://www.w3.org/2000/svg">
<path d="M6.03474 4.98737C5.60724 4.55987 4.91413 4.55987 4.48664 4.98737C4.05914 5.41487 4.05914 6.10798 4.48664 6.53547L8.53077 10.5796L4.59568 14.5147C4.16818 14.9422 4.16818 15.6353 4.59568 16.0628C5.02318 16.4903 5.71629 16.4903 6.14378 16.0628L10.0789 12.1277L13.7743 15.8232C14.2018 16.2507 14.895 16.2507 15.3224 15.8232C15.7499 15.3957 15.7499 14.7026 15.3224 14.2751L11.627 10.5796L15.4315 6.77509C15.859 6.34759 15.859 5.65448 15.4315 5.22698C15.004 4.79949 14.3109 4.79949 13.8834 5.22698L10.0789 9.0315L6.03474 4.98737Z" fill="black"/>
</svg>
