<svg width="18" height="18" viewBox="0 0 18 18" fill="none" xmlns="http://www.w3.org/2000/svg">
<path d="M13.773 4.84119C13.9989 4.61525 13.9989 4.24892 13.773 4.02297C13.547 3.79702 13.1807 3.79702 12.9547 4.02297L9 7.97772L5.04525 4.02297C4.81931 3.79702 4.45297 3.79702 4.22703 4.02297C4.00108 4.24892 4.00108 4.61525 4.22703 4.84119L8.18178 8.79594L4.22703 12.7507C4.00108 12.9766 4.00108 13.343 4.22703 13.5689C4.45298 13.7949 4.81931 13.7949 5.04525 13.5689L9 9.61416L12.9547 13.5689C13.1807 13.7949 13.547 13.7949 13.773 13.5689C13.9989 13.343 13.9989 12.9766 13.773 12.7507L9.81822 8.79594L13.773 4.84119Z" fill="#666666"/>
</svg>
