<svg width="1252" height="476" viewBox="0 0 1252 476" fill="none" xmlns="http://www.w3.org/2000/svg">
<mask id="path-1-inside-1_1283_10483" fill="white">
<path fill-rule="evenodd" clip-rule="evenodd" d="M515 0H270V71H0V476H1252V71H515V0Z"/>
</mask>
<path fill-rule="evenodd" clip-rule="evenodd" d="M515 0H270V71H0V476H1252V71H515V0Z" fill="white"/>
<path d="M270 0V-0.5H269.5V0H270ZM515 0H515.5V-0.5H515V0ZM270 71V71.5H270.5V71H270ZM0 71V70.5H-0.5V71H0ZM0 476H-0.5V476.5H0V476ZM1252 476V476.5H1252.5V476H1252ZM1252 71H1252.5V70.5H1252V71ZM515 71H514.5V71.5H515V71ZM270 0.5H515V-0.5H270V0.5ZM270.5 71V0H269.5V71H270.5ZM0 71.5H270V70.5H0V71.5ZM0.5 476V71H-0.5V476H0.5ZM1252 475.5H0V476.5H1252V475.5ZM1251.5 71V476H1252.5V71H1251.5ZM515 71.5H1252V70.5H515V71.5ZM514.5 0V71H515.5V0H514.5Z" fill="#506A70" mask="url(#path-1-inside-1_1283_10483)"/>
</svg>
