<svg width="34" height="34" viewBox="0 0 34 34" fill="none" xmlns="http://www.w3.org/2000/svg">
<path d="M24.0835 12.7497C24.0835 18.2322 19.3235 22.6663 13.4585 22.6663L12.141 24.253L11.3618 25.1881C10.696 25.9814 9.42099 25.8113 8.98182 24.8622L7.0835 20.683C4.50516 18.8696 2.8335 15.9938 2.8335 12.7497C2.8335 7.26718 7.5935 2.83301 13.4585 2.83301C17.7368 2.83301 21.4343 5.19885 23.0918 8.59885C23.7293 9.85969 24.0835 11.2622 24.0835 12.7497Z" stroke="white" stroke-width="1.5" stroke-linecap="round" stroke-linejoin="round"/>
<path d="M31.1665 18.2187C31.1665 21.4629 29.4948 24.3388 26.9165 26.1521L25.0181 30.3312C24.579 31.2804 23.3039 31.4646 22.6381 30.6571L20.5414 28.1354C17.1131 28.1354 14.0531 26.6196 12.1406 24.2538L13.4581 22.6671C19.3231 22.6671 24.0831 18.2329 24.0831 12.7504C24.0831 11.2629 23.729 9.86044 23.0915 8.59961C27.724 9.66211 31.1665 13.5721 31.1665 18.2187Z" stroke="white" stroke-width="1.5" stroke-linecap="round" stroke-linejoin="round"/>
<path d="M9.9165 12.75H16.9998" stroke="white" stroke-width="1.5" stroke-linecap="round" stroke-linejoin="round"/>
</svg>
