<svg width="21" height="20" viewBox="0 0 21 20" fill="none" xmlns="http://www.w3.org/2000/svg">
<path d="M10.8363 17.3416C10.553 17.4416 10.0863 17.4416 9.80299 17.3416C7.38633 16.5166 1.98633 13.0749 1.98633 7.24159C1.98633 4.66659 4.06133 2.58325 6.61966 2.58325C8.13633 2.58325 9.47799 3.31659 10.3197 4.44992C11.1613 3.31659 12.5113 2.58325 14.0197 2.58325C16.578 2.58325 18.653 4.66659 18.653 7.24159C18.653 13.0749 13.253 16.5166 10.8363 17.3416Z" fill="#D99330"/>
<path d="M10.8363 17.3416C10.553 17.4416 10.0863 17.4416 9.80299 17.3416C7.38633 16.5166 1.98633 13.0749 1.98633 7.24159C1.98633 4.66659 4.06133 2.58325 6.61966 2.58325C8.13633 2.58325 9.47799 3.31659 10.3197 4.44992C11.1613 3.31659 12.5113 2.58325 14.0197 2.58325C16.578 2.58325 18.653 4.66659 18.653 7.24159C18.653 13.0749 13.253 16.5166 10.8363 17.3416Z" fill="#29BEC8"/>
</svg>
