<svg width="21" height="20" viewBox="0 0 21 20" fill="none" xmlns="http://www.w3.org/2000/svg">
<path d="M11.3285 17.3416C11.0423 17.4416 10.5708 17.4416 10.2845 17.3416C7.84274 16.5166 2.38672 13.0749 2.38672 7.24159C2.38672 4.66659 4.48325 2.58325 7.06812 2.58325C8.60053 2.58325 9.95611 3.31659 10.8065 4.44992C11.6569 3.31659 13.0209 2.58325 14.5449 2.58325C17.1298 2.58325 19.2263 4.66659 19.2263 7.24159C19.2263 13.0749 13.7703 16.5166 11.3285 17.3416Z" fill="#D99330"/>
<path d="M11.3285 17.3416C11.0423 17.4416 10.5708 17.4416 10.2845 17.3416C7.84274 16.5166 2.38672 13.0749 2.38672 7.24159C2.38672 4.66659 4.48325 2.58325 7.06812 2.58325C8.60053 2.58325 9.95611 3.31659 10.8065 4.44992C11.6569 3.31659 13.0209 2.58325 14.5449 2.58325C17.1298 2.58325 19.2263 4.66659 19.2263 7.24159C19.2263 13.0749 13.7703 16.5166 11.3285 17.3416Z" fill="#29BEC8"/>
</svg>
